SplineFontDB: 3.2
FontName: Serene-Regular
FullName: Serene Regular
FamilyName: Serene
Weight: Regular
Copyright: Copyright (c) 2022, the SerenityOS developers.
UComments: "2021-6-17: Created with FontForge (http://fontforge.org)"
Version: 04.000
ItalicAngle: 0
UnderlinePosition: -50
UnderlineWidth: 25
Ascent: 375
Descent: 125
InvalidEm: 0
LayerCount: 2
Layer: 0 0 "Back" 1
Layer: 1 0 "Fore" 0
XUID: [1021 842 838150694 14286036]
OS2Version: 0
OS2_WeightWidthSlopeOnly: 0
OS2_UseTypoMetrics: 1
CreationTime: 1623906316
ModificationTime: 1658649806
OS2TypoAscent: 0
OS2TypoAOffset: 1
OS2TypoDescent: 0
OS2TypoDOffset: 1
OS2TypoLinegap: 0
OS2WinAscent: 0
OS2WinAOffset: 1
OS2WinDescent: 0
OS2WinDOffset: 1
HheadAscent: 0
HheadAOffset: 1
HheadDescent: 0
HheadDOffset: 1
OS2Vendor: 'PfEd'
MarkAttachClasses: 1
DEI: 91125
Encoding: Custom
UnicodeInterp: none
NameList: AGL For New Fonts
DisplaySize: -48
AntiAlias: 1
FitToEm: 0
WinInfo: 0 32 20
BeginPrivate: 0
EndPrivate
BeginChars: 262 103

StartChar: z
Encoding: 122 122 0
Width: 188
Flags: HW
LayerCount: 2
Fore
SplineSet
19 225 m 1
 169 225 l 1
 169 185 l 1
 69 65 l 1
 169 65 l 1
 169 25 l 1
 19 25 l 1
 19 65 l 1
 119 185 l 1
 19 185 l 1
 19 225 l 1
EndSplineSet
EndChar

StartChar: y
Encoding: 121 121 1
Width: 188
Flags: HW
LayerCount: 2
Fore
SplineSet
19 225 m 1
 59 225 l 1
 59 100 l 2
 59 50 129 50 129 100 c 2
 129 225 l 1
 169 225 l 1
 169 100 l 1
 169 -50 l 2
 169 -150 19 -150 19 -50 c 1
 59 -50 l 1
 59 -100 129 -100 129 -50 c 2
 129 32.79296875 l 1
 84.564453125 11.4853515625 19 33.8857421875 19 100 c 2
 19 225 l 1
EndSplineSet
EndChar

StartChar: w
Encoding: 119 119 2
Width: 188
Flags: HW
LayerCount: 2
Fore
SplineSet
64 25 m 0
 41.5 25 19 50 19 100 c 2
 19 225 l 1
 59 225 l 1
 59 100 l 2
 59 50 79 50 79 100 c 2
 79 225 l 1
 109 225 l 1
 109 100 l 2
 109 50 129 50 129 100 c 2
 129 225 l 1
 169 225 l 1
 169 100 l 2
 169 25.9140625 119.602539062 6.7177734375 94 42.40625 c 1
 85.6767578125 30.8037109375 74.8388671875 25 64 25 c 0
EndSplineSet
EndChar

StartChar: v
Encoding: 118 118 3
Width: 188
Flags: HW
LayerCount: 2
Fore
SplineSet
59 225 m 1
 94 105 l 1
 129 225 l 1
 169 225 l 1
 109 25 l 1
 79 25 l 1
 19 225 l 1
 59 225 l 1
EndSplineSet
EndChar

StartChar: u
Encoding: 117 117 4
Width: 188
Flags: HW
LayerCount: 2
Fore
SplineSet
19 225 m 1
 59 225 l 1
 59 100 l 2
 59 50 129 50 129 100 c 2
 129 225 l 1
 169 225 l 1
 169 100 l 2
 169 0 19 0 19 100 c 2
 19 225 l 1
EndSplineSet
EndChar

StartChar: t
Encoding: 116 116 5
Width: 188
Flags: HW
LayerCount: 2
Fore
SplineSet
19 375 m 1
 59 375 l 1
 59 225 l 1
 119 225 l 1
 119 185 l 1
 59 185 l 1
 59 100 l 2
 59 50 129 50 129 100 c 1
 169 100 l 1
 169 0 19 0 19 100 c 2
 19 375 l 1
EndSplineSet
EndChar

StartChar: s
Encoding: 115 115 6
Width: 188
Flags: HW
LayerCount: 2
Fore
SplineSet
94 225 m 0
 131.5 225 169 200 169 150 c 1
 129 150 l 1
 129 200 59 200 59 150 c 1
 169 125 l 1
 169 100 l 2
 169 0 19 0 19 100 c 1
 59 100 l 1
 59 50 129 50 129 100 c 1
 19 125 l 1
 19 150 l 2
 19 200 56.5 225 94 225 c 0
EndSplineSet
EndChar

StartChar: r
Encoding: 114 114 7
Width: 188
Flags: HW
LayerCount: 2
Fore
SplineSet
94 225 m 0
 131.5 225 169 200 169 150 c 1
 129 150 l 1
 129 200 59 200 59 150 c 2
 59 25 l 1
 19 25 l 1
 19 150 l 2
 19 200 56.5 225 94 225 c 0
EndSplineSet
EndChar

StartChar: q
Encoding: 113 113 8
Width: 188
Flags: HW
LayerCount: 2
Fore
SplineSet
94 225 m 0
 131.5 225 169 200 169 150 c 2
 169 100 l 1
 169 -125 l 1
 129 -125 l 1
 129 32.79296875 l 1
 84.564453125 11.4853515625 19 33.8857421875 19 100 c 2
 19 150 l 2
 19 200 56.5 225 94 225 c 0
94 187.5 m 0
 76.5 187.5 59 175 59 150 c 2
 59 100 l 2
 59 50 129 50 129 100 c 2
 129 150 l 2
 129 175 111.5 187.5 94 187.5 c 0
EndSplineSet
EndChar

StartChar: p
Encoding: 112 112 9
Width: 188
Flags: HW
LayerCount: 2
Fore
SplineSet
94 225 m 0
 131.5 225 169 200 169 150 c 2
 169 100 l 2
 169 33.8857421875 103.435546875 11.4853515625 59 32.79296875 c 1
 59 -125 l 1
 19 -125 l 1
 19 100 l 1
 19 150 l 2
 19 200 56.5 225 94 225 c 0
94 187.5 m 0
 76.5 187.5 59 175 59 150 c 2
 59 100 l 2
 59 50 129 50 129 100 c 2
 129 150 l 2
 129 175 111.5 187.5 94 187.5 c 0
EndSplineSet
EndChar

StartChar: o
Encoding: 111 111 10
Width: 188
Flags: HW
HStem: 187.5 37.5<69.2582 118.742>
VStem: 19 40<74.5117 177.374> 129 40<74.5117 177.374>
LayerCount: 2
Fore
SplineSet
94 225 m 0
 131.5 225 169 200 169 150 c 2
 169 100 l 2
 169 0 19 0 19 100 c 2
 19 150 l 2
 19 200 56.5 225 94 225 c 0
94 187.5 m 0
 76.5 187.5 59 175 59 150 c 2
 59 100 l 2
 59 50 129 50 129 100 c 2
 129 150 l 2
 129 175 111.5 187.5 94 187.5 c 0
EndSplineSet
EndChar

StartChar: n
Encoding: 110 110 11
Width: 188
Flags: HW
LayerCount: 2
Fore
SplineSet
94 225 m 0
 131.5 225 169 200 169 150 c 2
 169 25 l 1
 129 25 l 1
 129 150 l 2
 129 200 59 200 59 150 c 2
 59 25 l 1
 19 25 l 1
 19 150 l 2
 19 200 56.5 225 94 225 c 0
EndSplineSet
EndChar

StartChar: m
Encoding: 109 109 12
Width: 188
Flags: HW
LayerCount: 2
Fore
SplineSet
64 225 m 0
 74.8388671875 225 85.6767578125 219.196289062 94 207.59375 c 1
 119.602539062 243.282226562 169 224.0859375 169 150 c 2
 169 25 l 1
 129 25 l 1
 129 150 l 2
 129 200 109 200 109 150 c 2
 109 25 l 1
 79 25 l 1
 79 150 l 2
 79 200 59 200 59 150 c 2
 59 25 l 1
 19 25 l 1
 19 150 l 2
 19 200 41.5 225 64 225 c 0
EndSplineSet
EndChar

StartChar: l
Encoding: 108 108 13
Width: 188
Flags: HW
LayerCount: 2
Fore
SplineSet
19 375 m 1
 59 375 l 1
 59 100 l 2
 59 50 129 50 129 100 c 1
 169 100 l 1
 169 0 19 0 19 100 c 2
 19 375 l 1
EndSplineSet
EndChar

StartChar: k
Encoding: 107 107 14
Width: 188
Flags: HW
LayerCount: 2
Fore
SplineSet
19 375 m 1
 59 375 l 1
 59 125 l 1
 59 25 l 1
 19 25 l 1
 19 375 l 1
59 125 m 1
 124 225 l 1
 169 225 l 1
 104 125 l 1
 169 25 l 1
 124 25 l 1
 59 125 l 1
EndSplineSet
EndChar

StartChar: j
Encoding: 106 106 15
Width: 188
Flags: HW
LayerCount: 2
Fore
SplineSet
129 300 m 1
 169 300 l 1
 169 260 l 1
 129 260 l 1
 129 300 l 1
69 225 m 1
 129 225 l 1
 169 225 l 1
 169 -50 l 2
 169 -150 19 -150 19 -50 c 1
 59 -50 l 1
 59 -100 129 -100 129 -50 c 2
 129 185 l 1
 69 185 l 1
 69 225 l 1
EndSplineSet
EndChar

StartChar: i
Encoding: 105 105 16
Width: 188
Flags: HW
LayerCount: 2
Fore
SplineSet
59 300 m 1
 99 300 l 1
 99 260 l 1
 59 260 l 1
 59 300 l 1
19 225 m 1
 99 225 l 1
 99 100 l 2
 99 50 129 50 129 100 c 1
 169 100 l 1
 169 0 59 0 59 100 c 2
 59 185 l 1
 19 185 l 1
 19 225 l 1
EndSplineSet
EndChar

StartChar: h
Encoding: 104 104 17
Width: 188
Flags: HW
LayerCount: 2
Fore
SplineSet
19 375 m 1
 59 375 l 1
 59 217.20703125 l 1
 103.435546875 238.514648438 169 216.114257812 169 150 c 2
 169 25 l 1
 129 25 l 1
 129 150 l 2
 129 200 59 200 59 150 c 2
 59 25 l 1
 19 25 l 1
 19 375 l 1
EndSplineSet
EndChar

StartChar: g
Encoding: 103 103 18
Width: 188
Flags: HW
LayerCount: 2
Fore
SplineSet
94 225 m 0
 131.5 225 169 200 169 150 c 2
 169 100 l 1
 169 -50 l 2
 169 -150 19 -150 19 -50 c 1
 59 -50 l 1
 59 -100 129 -100 129 -50 c 2
 129 32.79296875 l 1
 84.564453125 11.4853515625 19 33.8857421875 19 100 c 2
 19 150 l 2
 19 200 56.5 225 94 225 c 0
94 187.5 m 0
 76.5 187.5 59 175 59 150 c 2
 59 100 l 2
 59 50 129 50 129 100 c 2
 129 150 l 2
 129 175 111.5 187.5 94 187.5 c 0
EndSplineSet
EndChar

StartChar: f
Encoding: 102 102 19
Width: 188
Flags: HW
LayerCount: 2
Fore
SplineSet
94 375 m 0
 131.5 375 169 350 169 300 c 1
 129 300 l 1
 129 350 59 350 59 300 c 2
 59 225 l 1
 119 225 l 1
 119 185 l 1
 59 185 l 1
 59 25 l 1
 19 25 l 1
 19 300 l 2
 19 350 56.5 375 94 375 c 0
EndSplineSet
EndChar

StartChar: e
Encoding: 101 101 20
Width: 188
Flags: HW
LayerCount: 2
Fore
SplineSet
94 225 m 0
 131.5 225 169 200 169 150 c 2
 169 125 l 1
 59 125 l 1
 59 100 l 2
 59 50 129 50 129 100 c 1
 169 100 l 1
 169 0 19 0 19 100 c 2
 19 150 l 2
 19 200 56.5 225 94 225 c 0
94 187.5 m 0
 76.5 187.5 59 175 59 150 c 1
 129 150 l 1
 129 175 111.5 187.5 94 187.5 c 0
EndSplineSet
EndChar

StartChar: d
Encoding: 100 100 21
Width: 188
Flags: HW
LayerCount: 2
Fore
SplineSet
169 375 m 1
 169 150 l 1
 169 100 l 2
 169 0 19 0 19 100 c 2
 19 150 l 2
 19 216.114257812 84.564453125 238.514648438 129 217.20703125 c 1
 129 375 l 1
 169 375 l 1
94 187.5 m 0
 76.5 187.5 59 175 59 150 c 2
 59 100 l 2
 59 50 129 50 129 100 c 2
 129 150 l 2
 129 175 111.5 187.5 94 187.5 c 0
EndSplineSet
EndChar

StartChar: c
Encoding: 99 99 22
Width: 188
Flags: HW
LayerCount: 2
Fore
SplineSet
94 225 m 0
 131.5 225 169 200 169 150 c 1
 129 150 l 1
 129 200 59 200 59 150 c 2
 59 100 l 2
 59 50 129 50 129 100 c 1
 169 100 l 1
 169 0 19 0 19 100 c 2
 19 150 l 2
 19 200 56.5 225 94 225 c 0
EndSplineSet
EndChar

StartChar: b
Encoding: 98 98 23
Width: 188
Flags: HW
LayerCount: 2
Fore
SplineSet
19 375 m 1
 59 375 l 1
 59 217.20703125 l 1
 103.435546875 238.514648438 169 216.114257812 169 150 c 2
 169 100 l 2
 169 0 19 0 19 100 c 2
 19 150 l 1
 19 375 l 1
94 187.5 m 0
 76.5 187.5 59 175 59 150 c 2
 59 100 l 2
 59 50 129 50 129 100 c 2
 129 150 l 2
 129 175 111.5 187.5 94 187.5 c 0
EndSplineSet
EndChar

StartChar: a
Encoding: 97 97 24
Width: 188
Flags: HW
LayerCount: 2
Fore
SplineSet
94 225 m 0
 131.5 225 169 200 169 150 c 2
 169 100 l 1
 169 25 l 1
 129 25 l 1
 129 32.79296875 l 1
 84.564453125 11.4853515625 19 33.8857421875 19 100 c 2
 19 150 l 2
 19 200 56.5 225 94 225 c 0
94 187.5 m 0
 76.5 187.5 59 175 59 150 c 2
 59 100 l 2
 59 50 129 50 129 100 c 2
 129 150 l 2
 129 175 111.5 187.5 94 187.5 c 0
EndSplineSet
EndChar

StartChar: Z
Encoding: 90 90 25
Width: 188
Flags: HW
LayerCount: 2
Fore
SplineSet
19 375 m 1
 169 375 l 1
 169 335 l 1
 64 65 l 1
 169 65 l 1
 169 25 l 1
 19 25 l 1
 19 65 l 1
 124 335 l 1
 19 335 l 1
 19 375 l 1
EndSplineSet
EndChar

StartChar: Y
Encoding: 89 89 26
Width: 188
Flags: HW
LayerCount: 2
Fore
SplineSet
19 375 m 1
 59 375 l 1
 59 290 l 2
 59 220 129 220 129 290 c 2
 129 375 l 1
 169 375 l 1
 169 290 l 2
 169 240.783203125 143.766601562 211.7578125 114 202.912109375 c 1
 114 25 l 1
 74 25 l 1
 74 202.912109375 l 1
 44.2333984375 211.7578125 19 240.783203125 19 290 c 2
 19 375 l 1
EndSplineSet
EndChar

StartChar: W
Encoding: 87 87 27
Width: 188
Flags: HW
LayerCount: 2
Fore
SplineSet
19 375 m 1
 59 375 l 1
 59 160 l 1
 94 240 l 1
 129 160 l 1
 129 375 l 1
 169 375 l 1
 169 25 l 1
 144 25 l 1
 94 150 l 1
 44 25 l 1
 19 25 l 1
 19 375 l 1
EndSplineSet
EndChar

StartChar: V
Encoding: 86 86 28
Width: 188
Flags: HW
LayerCount: 2
Fore
SplineSet
19 375 m 1
 59 375 l 1
 94 175 l 1
 129 375 l 1
 169 375 l 1
 109 25 l 1
 79 25 l 1
 19 375 l 1
EndSplineSet
EndChar

StartChar: U
Encoding: 85 85 29
Width: 188
Flags: HW
LayerCount: 2
Fore
SplineSet
94 25 m 0
 56.5 25 19 55 19 115 c 2
 19 375 l 1
 59 375 l 1
 59 115 l 2
 59 45 129 45 129 115 c 2
 129 375 l 1
 169 375 l 1
 169 115 l 2
 169 55 131.5 25 94 25 c 0
EndSplineSet
EndChar

StartChar: T
Encoding: 84 84 30
Width: 188
Flags: HW
LayerCount: 2
Fore
SplineSet
19 375 m 1
 169 375 l 1
 169 335 l 1
 114 335 l 1
 114 25 l 1
 74 25 l 1
 74 335 l 1
 19 335 l 1
 19 375 l 1
EndSplineSet
EndChar

StartChar: S
Encoding: 83 83 31
Width: 188
Flags: HW
LayerCount: 2
Fore
SplineSet
94 375 m 0
 131.5 375 169 345 169 285 c 1
 129 285 l 1
 129 355 59 355 59 285 c 0
 59 250 79 225 94 220 c 0
 144 200 169 175 169 115 c 0
 169 -5 19 -5 19 115 c 1
 59 115 l 1
 59 45 129 45 129 115 c 0
 129 150 109 175 94 180 c 0
 44 200 19 225 19 285 c 0
 19 345 56.5 375 94 375 c 0
EndSplineSet
EndChar

StartChar: R
Encoding: 82 82 32
Width: 188
Flags: HW
LayerCount: 2
Fore
SplineSet
19 375 m 1
 59 375 l 1
 94 375 l 2
 179.564453125 375 191.911132812 232.241210938 131.05078125 191.0234375 c 1
 169 25 l 1
 129 25 l 1
 93.572265625 180 l 1
 59 180 l 1
 59 25 l 1
 19 25 l 1
 19 375 l 1
59 335 m 1
 59 220 l 1
 94 220 l 2
 144 220 144 335 94 335 c 2
 59 335 l 1
EndSplineSet
EndChar

StartChar: Q
Encoding: 81 81 33
Width: 188
Flags: HW
LayerCount: 2
Fore
SplineSet
94 375 m 0
 131.5 375 169 345 169 285 c 2
 169 115 l 2
 169 88.2646484375 161.54296875 67.501953125 149.96875 52.6796875 c 1
 169 25 l 1
 129 25 l 1
 124.228515625 31.939453125 l 1
 80.0234375 10.8115234375 19 38.44140625 19 115 c 2
 19 285 l 2
 19 345 56.5 375 94 375 c 0
94 337.5 m 0
 76.5 337.5 59 320 59 285 c 2
 59 115 l 2
 59 74.43359375 82.5009765625 57.4267578125 102.271484375 63.87890625 c 1
 74 105 l 1
 114 105 l 1
 124.982421875 89.02734375 l 1
 127.49609375 96.23046875 129 104.856445312 129 115 c 2
 129 285 l 2
 129 320 111.5 337.5 94 337.5 c 0
EndSplineSet
EndChar

StartChar: P
Encoding: 80 80 34
Width: 188
Flags: HW
LayerCount: 2
Fore
SplineSet
19 375 m 1
 59 375 l 1
 94 375 l 2
 194 375 194 180 94 180 c 2
 59 180 l 1
 59 25 l 1
 19 25 l 1
 19 375 l 1
59 335 m 1
 59 220 l 1
 94 220 l 2
 144 220 144 335 94 335 c 2
 59 335 l 1
EndSplineSet
EndChar

StartChar: O
Encoding: 79 79 35
Width: 188
Flags: HW
HStem: 337.5 37.5<72.4963 115.504>
VStem: 19 40<75.625 324.375> 129 40<75.625 324.375>
LayerCount: 2
Fore
SplineSet
94 375 m 0
 131.5 375 169 345 169 285 c 2
 169 115 l 2
 169 -5 19 -5 19 115 c 2
 19 285 l 2
 19 345 56.5 375 94 375 c 0
94 337.5 m 0
 76.5 337.5 59 320 59 285 c 2
 59 115 l 2
 59 45 129 45 129 115 c 2
 129 285 l 2
 129 320 111.5 337.5 94 337.5 c 0
EndSplineSet
EndChar

StartChar: N
Encoding: 78 78 36
Width: 188
Flags: HW
LayerCount: 2
Fore
SplineSet
19 25 m 1
 19 375 l 1
 44 375 l 1
 129 165 l 1
 129 375 l 1
 169 375 l 1
 169 25 l 1
 144 25 l 1
 59 235 l 1
 59 25 l 1
 19 25 l 1
EndSplineSet
EndChar

StartChar: M
Encoding: 77 77 37
Width: 188
Flags: HW
LayerCount: 2
Fore
SplineSet
19 25 m 1
 19 375 l 1
 44 375 l 1
 94 250 l 1
 144 375 l 1
 169 375 l 1
 169 25 l 1
 129 25 l 1
 129 240 l 1
 94 160 l 1
 59 240 l 1
 59 25 l 1
 19 25 l 1
EndSplineSet
EndChar

StartChar: L
Encoding: 76 76 38
Width: 188
Flags: HW
LayerCount: 2
Fore
SplineSet
19 375 m 1
 59 375 l 1
 59 65 l 1
 169 65 l 1
 169 25 l 1
 59 25 l 1
 19 25 l 1
 19 375 l 1
EndSplineSet
EndChar

StartChar: K
Encoding: 75 75 39
Width: 188
Flags: HW
LayerCount: 2
Fore
SplineSet
19 375 m 1
 59 375 l 1
 59 200 l 1
 59 25 l 1
 19 25 l 1
 19 375 l 1
59 200 m 1
 129 375 l 1
 169 375 l 1
 99 200 l 1
 169 25 l 1
 129 25 l 1
 59 200 l 1
EndSplineSet
EndChar

StartChar: J
Encoding: 74 74 40
Width: 188
Flags: HW
LayerCount: 2
Fore
SplineSet
69 375 m 1
 169 375 l 1
 169 335 l 1
 169 115 l 2
 169 -5 19 -5 19 115 c 1
 59 115 l 1
 59 45 129 45 129 115 c 2
 129 335 l 1
 69 335 l 1
 69 375 l 1
EndSplineSet
EndChar

StartChar: I
Encoding: 73 73 41
Width: 188
Flags: HW
HStem: 25 40<19 74 114 169> 335 40<19 74 114 169>
VStem: 74 40<65 335>
LayerCount: 2
Fore
SplineSet
19 375 m 1
 169 375 l 1
 169 335 l 1
 114 335 l 1
 114 65 l 1
 169 65 l 1
 169 25 l 1
 19 25 l 1
 19 65 l 1
 74 65 l 1
 74 335 l 1
 19 335 l 1
 19 375 l 1
EndSplineSet
EndChar

StartChar: H
Encoding: 72 72 42
Width: 188
Flags: HW
LayerCount: 2
Fore
SplineSet
19 375 m 1
 59 375 l 1
 59 220 l 1
 129 220 l 1
 129 375 l 1
 169 375 l 1
 169 25 l 1
 129 25 l 1
 129 180 l 1
 59 180 l 1
 59 25 l 1
 19 25 l 1
 19 375 l 1
EndSplineSet
EndChar

StartChar: G
Encoding: 71 71 43
Width: 188
Flags: HW
LayerCount: 2
Fore
SplineSet
94 375 m 0
 131.5 375 169 345 169 285 c 1
 129 285 l 1
 129 355 59 355 59 285 c 2
 59 115 l 2
 59 45 129 45 129 115 c 2
 129 180 l 1
 94 180 l 1
 94 220 l 1
 169 220 l 1
 169 115 l 1
 169 25 l 1
 129 25 l 1
 129 34.353515625 l 1
 84.564453125 8.7841796875 19 35.6630859375 19 115 c 2
 19 285 l 2
 19 345 56.5 375 94 375 c 0
EndSplineSet
EndChar

StartChar: F
Encoding: 70 70 44
Width: 188
Flags: HW
LayerCount: 2
Fore
SplineSet
19 375 m 1
 169 375 l 1
 169 335 l 1
 59 335 l 1
 59 220 l 1
 169 220 l 1
 169 180 l 1
 59 180 l 1
 59 25 l 1
 19 25 l 1
 19 375 l 1
EndSplineSet
EndChar

StartChar: E
Encoding: 69 69 45
Width: 188
Flags: HW
LayerCount: 2
Fore
SplineSet
19 375 m 1
 169 375 l 1
 169 335 l 1
 59 335 l 1
 59 220 l 1
 169 220 l 1
 169 180 l 1
 59 180 l 1
 59 65 l 1
 169 65 l 1
 169 25 l 1
 19 25 l 1
 19 375 l 1
EndSplineSet
EndChar

StartChar: D
Encoding: 68 68 46
Width: 188
Flags: HW
LayerCount: 2
Fore
SplineSet
19 375 m 1
 59 375 l 1
 94 375 l 1
 194 350 194 50 94 25 c 1
 59 25 l 1
 19 25 l 1
 19 375 l 1
59 340 m 1
 59 65 l 1
 79 65 l 1
 144 80 144 320 79 340 c 1
 59 340 l 1
EndSplineSet
EndChar

StartChar: C
Encoding: 67 67 47
Width: 188
Flags: HW
LayerCount: 2
Fore
SplineSet
94 375 m 0
 131.5 375 169 345 169 285 c 1
 129 285 l 1
 129 355 59 355 59 285 c 2
 59 115 l 2
 59 45 129 45 129 115 c 1
 169 115 l 1
 169 -5 19 -5 19 115 c 2
 19 285 l 2
 19 345 56.5 375 94 375 c 0
EndSplineSet
EndChar

StartChar: B
Encoding: 66 66 48
Width: 187
Flags: HW
LayerCount: 2
Fore
SplineSet
19 375 m 1
 59 375 l 1
 94 375 l 2
 174.153320312 375 190.056640625 249.727539062 141.71875 200 c 1
 190.056640625 150.272460938 174.153320312 25 94 25 c 2
 59 25 l 1
 19 25 l 1
 19 375 l 1
59 335 m 1
 59 220 l 1
 94 220 l 2
 144 220 144 335 94 335 c 2
 59 335 l 1
59 180 m 1
 59 65 l 1
 94 65 l 2
 144 65 144 180 94 180 c 2
 59 180 l 1
EndSplineSet
EndChar

StartChar: A
Encoding: 65 65 49
Width: 188
Flags: HW
LayerCount: 2
Fore
SplineSet
19 285 m 1
 19 405 169 405 169 285 c 1
 129 285 l 1
 129 355 59 355 59 285 c 1
 19 285 l 1
19 285 m 1
 59 285 l 1
 59 25 l 1
 19 25 l 1
 19 285 l 1
129 285 m 1
 169 285 l 1
 169 25 l 1
 129 25 l 1
 129 285 l 1
59 220 m 1
 129 220 l 1
 129 180 l 1
 59 180 l 1
 59 220 l 1
EndSplineSet
EndChar

StartChar: X
Encoding: 88 88 50
Width: 188
Flags: HW
LayerCount: 2
Fore
SplineSet
19 375 m 1
 64 375 l 1
 94 275 l 1
 124 375 l 1
 169 375 l 1
 116.5 200 l 1
 169 25 l 1
 124 25 l 1
 94 125 l 1
 64 25 l 1
 19 25 l 1
 71.5 200 l 1
 19 375 l 1
EndSplineSet
EndChar

StartChar: x
Encoding: 120 120 51
Width: 188
Flags: HW
HStem: 25 21G<19 74.5001 113.5 169> 205 20G<19 74.5001 113.5 169>
VStem: 19 150
LayerCount: 2
Fore
SplineSet
19 225 m 1
 64 225 l 1
 94 167.857421875 l 1
 124 225 l 1
 169 225 l 1
 116.5 125 l 1
 169 25 l 1
 124 25 l 1
 94 82.142578125 l 1
 64 25 l 1
 19 25 l 1
 71.5 125 l 1
 19 225 l 1
EndSplineSet
EndChar

StartChar: ampersand
Encoding: 129 38 53
Width: 188
Flags: HW
LayerCount: 2
Fore
SplineSet
93.21484375 373.9296875 m 0
 121.74609375 373.971679688 149 350.2734375 149 305 c 1
 109 305 l 1
 109 340 69 355 69 285 c 0
 69 225.354492188 96.08984375 160.7890625 127.794921875 99.93359375 c 1
 128.576171875 104.532226562 129 109.553710938 129 115 c 2
 129 140 l 1
 169 140 l 1
 169 115 l 2
 169 89.828125 162.397460938 69.939453125 151.966796875 55.328125 c 1
 157.715820312 45.021484375 163.434570312 34.89453125 169 25 c 1
 124 25 l 2
 123.044921875 26.8037109375 122.072265625 28.640625 121.11328125 30.44921875 c 0
 77.2158203125 12.060546875 19 40.2412109375 19 115 c 0
 19 144.698242188 33.3955078125 167.192382812 46.921875 188.599609375 c 1
 35.9189453125 221.08203125 29 253.38671875 29 285 c 0
 29 345.1953125 61.8779296875 373.8828125 93.21484375 373.9296875 c 0
65.828125 140.5234375 m 1
 61.482421875 131.1875 59 122.47265625 59 115 c 0
 59 73.7431640625 83.31640625 56.806640625 103.28515625 64.181640625 c 1
 90.052734375 89.4189453125 77.1064453125 114.942382812 65.828125 140.5234375 c 1
EndSplineSet
EndChar

StartChar: at
Encoding: 130 64 54
Width: 188
Flags: HW
LayerCount: 2
Fore
SplineSet
94 375 m 0
 131.5 375 169 350 169 300 c 2
 169 100 l 2
 169 0 79 0 79 100 c 2
 79 150 l 2
 79 203.709960938 104.963867188 228.569335938 129 224.583984375 c 1
 129 300 l 2
 129 350 59 350 59 300 c 2
 59 25 l 1
 19 25 l 1
 19 300 l 2
 19 350 56.5 375 94 375 c 0
116.5 187.5 m 0
 110.25 187.5 104 175 104 150 c 2
 104 100 l 2
 104 50 129 50 129 100 c 2
 129 150 l 2
 129 175 122.75 187.5 116.5 187.5 c 0
EndSplineSet
EndChar

StartChar: numbersign
Encoding: 131 35 55
Width: 188
Flags: HW
LayerCount: 2
Fore
SplineSet
64 375 m 1
 104 375 l 1
 89.857421875 265 l 1
 114.857421875 265 l 1
 129 375 l 1
 169 375 l 1
 154.857421875 265 l 1
 169 265 l 1
 169 225 l 1
 149.71484375 225 l 1
 143.28515625 175 l 1
 169 175 l 1
 169 135 l 1
 138.142578125 135 l 1
 124 25 l 1
 84 25 l 1
 98.142578125 135 l 1
 73.142578125 135 l 1
 59 25 l 1
 19 25 l 1
 33.142578125 135 l 1
 19 135 l 1
 19 175 l 1
 38.28515625 175 l 1
 44.71484375 225 l 1
 19 225 l 1
 19 265 l 1
 49.857421875 265 l 1
 64 375 l 1
84.71484375 225 m 1
 78.28515625 175 l 1
 103.28515625 175 l 1
 109.71484375 225 l 1
 84.71484375 225 l 1
EndSplineSet
EndChar

StartChar: percent
Encoding: 132 37 56
Width: 188
Flags: HW
LayerCount: 2
Fore
SplineSet
124 375 m 1
 169 375 l 1
 64 25 l 1
 19 25 l 1
 124 375 l 1
49 350 m 1
 89 350 l 1
 59 250 l 1
 19 250 l 1
 49 350 l 1
129 150 m 1
 169 150 l 1
 139 50 l 1
 99 50 l 1
 129 150 l 1
EndSplineSet
EndChar

StartChar: dollar
Encoding: 133 36 57
Width: 188
Flags: HW
LayerCount: 2
Fore
SplineSet
94 375 m 0
 131.5 375 169 345 169 285 c 1
 129 285 l 1
 129 309.694335938 120.276367188 325.634765625 109 332.90625 c 1
 109 213.4140625 l 1
 148.958984375 194.28515625 169 168.637695312 169 115 c 0
 169 -5 19 -5 19 115 c 1
 59 115 l 1
 59 90.3056640625 67.7236328125 74.365234375 79 67.09375 c 1
 79 186.5859375 l 1
 39.041015625 205.71484375 19 231.362304688 19 285 c 0
 19 345 56.5 375 94 375 c 0
79 332.90625 m 1
 67.7236328125 325.634765625 59 309.694335938 59 285 c 0
 59 261.115234375 68.3173828125 241.90234375 79 230.509765625 c 1
 79 332.90625 l 1
109 169.490234375 m 1
 109 67.09375 l 1
 120.276367188 74.365234375 129 90.3056640625 129 115 c 0
 129 138.884765625 119.682617188 158.09765625 109 169.490234375 c 1
EndSplineSet
EndChar

StartChar: question
Encoding: 134 63 58
Width: 188
Flags: HW
LayerCount: 2
Fore
SplineSet
94 375 m 0
 131.5 375 169 345 169 285 c 0
 169 245 114 165 114 150 c 2
 114 100 l 1
 74 100 l 1
 74 150 l 2
 74 175 129 245 129 285 c 0
 129 355 59 355 59 285 c 1
 19 285 l 1
 19 345 56.5 375 94 375 c 0
74 65 m 1
 114 65 l 1
 114 25 l 1
 74 25 l 1
 74 65 l 1
EndSplineSet
EndChar

StartChar: exclam
Encoding: 135 33 59
Width: 88
Flags: HW
LayerCount: 2
Fore
SplineSet
24 25 m 1
 24 65 l 1
 64 65 l 1
 64 25 l 1
 24 25 l 1
24 100 m 1
 19 375 l 1
 69 375 l 1
 64 100 l 1
 24 100 l 1
EndSplineSet
EndChar

StartChar: asterisk
Encoding: 136 42 60
Width: 188
Flags: HW
LayerCount: 2
Fore
SplineSet
74 225 m 1
 114 225 l 1
 114 164.666015625 l 1
 169 205 l 1
 169 155 l 1
 128.091796875 125 l 1
 169 95 l 1
 169 45 l 1
 114 85.333984375 l 1
 114 25 l 1
 74 25 l 1
 74 85.333984375 l 1
 19 45 l 1
 19 95 l 1
 59.908203125 125 l 1
 19 155 l 1
 19 205 l 1
 74 164.666015625 l 1
 74 225 l 1
EndSplineSet
EndChar

StartChar: plus
Encoding: 137 43 61
Width: 188
Flags: HW
LayerCount: 2
Fore
SplineSet
74 225 m 1
 114 225 l 1
 114 145 l 1
 169 145 l 1
 169 105 l 1
 114 105 l 1
 114 25 l 1
 74 25 l 1
 74 105 l 1
 19 105 l 1
 19 145 l 1
 74 145 l 1
 74 225 l 1
EndSplineSet
EndChar

StartChar: hyphen
Encoding: 138 45 62
Width: 188
Flags: HW
LayerCount: 2
Fore
SplineSet
19 145 m 1
 169 145 l 1
 169 105 l 1
 19 105 l 1
 19 145 l 1
EndSplineSet
EndChar

StartChar: equal
Encoding: 139 61 63
Width: 188
Flags: HW
LayerCount: 2
Fore
SplineSet
19 200 m 1
 169 200 l 1
 169 160 l 1
 19 160 l 1
 19 200 l 1
19 50 m 1
 19 90 l 1
 169 90 l 1
 169 50 l 1
 19 50 l 1
EndSplineSet
EndChar

StartChar: period
Encoding: 140 46 64
Width: 88
Flags: HW
LayerCount: 2
Fore
SplineSet
19 75 m 1
 69 75 l 1
 69 25 l 1
 19 25 l 1
 19 75 l 1
EndSplineSet
EndChar

StartChar: colon
Encoding: 141 58 65
Width: 88
Flags: HW
LayerCount: 2
Fore
SplineSet
19 75 m 1
 69 75 l 1
 69 25 l 1
 19 25 l 1
 19 75 l 1
19 225 m 1
 69 225 l 1
 69 175 l 1
 19 175 l 1
 19 225 l 1
EndSplineSet
EndChar

StartChar: comma
Encoding: 142 44 66
Width: 88
Flags: HW
LayerCount: 2
Fore
SplineSet
19 75 m 1
 69 75 l 1
 69 25 l 2
 69 -25 44 -50 19 -50 c 1
 34 -40 44 -25 44 25 c 1
 19 25 l 1
 19 75 l 1
EndSplineSet
EndChar

StartChar: semicolon
Encoding: 143 59 67
Width: 88
Flags: HW
LayerCount: 2
Fore
SplineSet
19 75 m 1
 69 75 l 1
 69 25 l 2
 69 -25 44 -50 19 -50 c 1
 34 -40 44 -25 44 25 c 1
 19 25 l 1
 19 75 l 1
19 225 m 1
 69 225 l 1
 69 175 l 1
 19 175 l 1
 19 225 l 1
EndSplineSet
EndChar

StartChar: uni275C
Encoding: 144 10076 68
Width: 88
Flags: HW
LayerCount: 2
Fore
SplineSet
19 375 m 1
 69 375 l 1
 69 325 l 2
 69 275 44 250 19 250 c 1
 34 260 44 275 44 325 c 1
 19 325 l 1
 19 375 l 1
EndSplineSet
EndChar

StartChar: uni275B
Encoding: 145 10075 69
Width: 88
Flags: HW
LayerCount: 2
Fore
SplineSet
69 250 m 1
 19 250 l 1
 19 300 l 2
 19 350 44 375 69 375 c 1
 54 365 44 350 44 300 c 1
 69 300 l 1
 69 250 l 1
EndSplineSet
EndChar

StartChar: uni275D
Encoding: 146 10077 70
Width: 163
Flags: HW
LayerCount: 2
Fore
SplineSet
69 250 m 1
 19 250 l 1
 19 300 l 2
 19 350 44 375 69 375 c 1
 54 365 44 350 44 300 c 1
 69 300 l 1
 69 250 l 1
144 250 m 1
 94 250 l 1
 94 300 l 2
 94 350 119 375 144 375 c 1
 129 365 119 350 119 300 c 1
 144 300 l 1
 144 250 l 1
EndSplineSet
EndChar

StartChar: uni275E
Encoding: 147 10078 71
Width: 163
Flags: HW
LayerCount: 2
Fore
SplineSet
94 375 m 1
 144 375 l 1
 144 325 l 2
 144 275 119 250 94 250 c 1
 109 260 119 275 119 325 c 1
 94 325 l 1
 94 375 l 1
19 375 m 1
 69 375 l 1
 69 325 l 2
 69 275 44 250 19 250 c 1
 34 260 44 275 44 325 c 1
 19 325 l 1
 19 375 l 1
EndSplineSet
EndChar

StartChar: quotedblleft
Encoding: 148 8220 72
Width: 163
Flags: HW
LayerCount: 2
Fore
SplineSet
144 250 m 1
 94 250 l 1
 94 300 l 2
 94 350 119 375 144 375 c 1
 129 365 119 325 144 300 c 1
 144 300 l 1
 144 250 l 1
69 250 m 1
 19 250 l 1
 19 300 l 2
 19 350 44 375 69 375 c 1
 54 365 44 325 69 300 c 1
 69 300 l 1
 69 250 l 1
EndSplineSet
EndChar

StartChar: quotedblright
Encoding: 149 8221 73
Width: 163
Flags: HW
LayerCount: 2
Fore
SplineSet
19 375 m 1
 69 375 l 1
 69 325 l 2
 69 275 44 250 19 250 c 1
 34 260 44 300 19 325 c 1
 19 325 l 1
 19 375 l 1
94 375 m 1
 144 375 l 1
 144 325 l 2
 144 275 119 250 94 250 c 1
 109 260 119 300 94 325 c 1
 94 325 l 1
 94 375 l 1
EndSplineSet
EndChar

StartChar: quotesingle
Encoding: 151 39 74
Width: 78
Flags: HW
LayerCount: 2
Fore
SplineSet
19 375 m 1
 59 375 l 1
 59 250 l 1
 19 250 l 1
 19 375 l 1
EndSplineSet
EndChar

StartChar: quoteright
Encoding: 150 8217 75
Width: 88
Flags: HW
LayerCount: 2
Fore
SplineSet
19 375 m 1
 69 375 l 1
 69 325 l 2
 69 275 44 250 19 250 c 1
 34 260 44 300 19 325 c 1
 19 325 l 1
 19 375 l 1
EndSplineSet
EndChar

StartChar: quotedbl
Encoding: 152 34 76
Width: 143
Flags: HW
LayerCount: 2
Fore
SplineSet
19 375 m 1
 59 375 l 1
 59 250 l 1
 19 250 l 1
 19 375 l 1
84 375 m 1
 124 375 l 1
 124 250 l 1
 84 250 l 1
 84 375 l 1
EndSplineSet
EndChar

StartChar: quoteleft
Encoding: 153 8216 77
Width: 88
Flags: HW
LayerCount: 2
Fore
SplineSet
69 250 m 1
 19 250 l 1
 19 300 l 2
 19 350 44 375 69 375 c 1
 54 365 44 325 69 300 c 1
 69 300 l 1
 69 250 l 1
EndSplineSet
EndChar

StartChar: grave
Encoding: 154 96 78
Width: 138
Flags: HW
LayerCount: 2
Fore
SplineSet
19 375 m 1
 64 375 l 1
 119 250 l 1
 74 250 l 1
 19 375 l 1
EndSplineSet
EndChar

StartChar: less
Encoding: 161 60 79
Width: 188
Flags: HW
LayerCount: 2
Fore
SplineSet
169 225 m 1
 169 185 l 1
 79 125 l 1
 169 65 l 1
 169 25 l 1
 19 125 l 1
 169 225 l 1
EndSplineSet
EndChar

StartChar: greater
Encoding: 162 62 80
Width: 188
Flags: HW
LayerCount: 2
Fore
SplineSet
19 225 m 1
 169 125 l 1
 19 25 l 1
 19 65 l 1
 109 125 l 1
 19 185 l 1
 19 225 l 1
EndSplineSet
EndChar

StartChar: asciicircum
Encoding: 163 94 81
Width: 188
Flags: HW
LayerCount: 2
Fore
SplineSet
19 225 m 1
 94 375 l 1
 169 225 l 1
 129 225 l 1
 94 295 l 1
 59 225 l 1
 19 225 l 1
EndSplineSet
EndChar

StartChar: asciitilde
Encoding: 164 126 82
Width: 188
Flags: HW
LayerCount: 2
Fore
SplineSet
64 181.25 m 0
 86.5 181.25 109 162.5 109 125 c 0
 109 100 129 100 129 125 c 2
 129 180 l 1
 169 180 l 1
 169 125 l 2
 169 50 79 50 79 125 c 0
 79 150 59 150 59 125 c 2
 59 70 l 1
 19 70 l 1
 19 125 l 2
 19 162.5 41.5 181.25 64 181.25 c 0
EndSplineSet
EndChar

StartChar: slash
Encoding: 165 47 83
Width: 188
Flags: HW
LayerCount: 2
Fore
SplineSet
19 25 m 1
 129 375 l 1
 169 375 l 1
 59 25 l 1
 19 25 l 1
EndSplineSet
EndChar

StartChar: backslash
Encoding: 166 92 84
Width: 188
Flags: HW
LayerCount: 2
Fore
SplineSet
169 25 m 1
 129 25 l 1
 19 375 l 1
 59 375 l 1
 169 25 l 1
EndSplineSet
EndChar

StartChar: bar
Encoding: 167 124 85
Width: 78
Flags: HW
LayerCount: 2
Fore
SplineSet
19 375 m 1
 59 375 l 1
 59 -125 l 1
 19 -125 l 1
 19 375 l 1
EndSplineSet
EndChar

StartChar: underscore
Encoding: 168 95 86
Width: 188
Flags: HW
LayerCount: 2
Fore
SplineSet
19 25 m 1
 169 25 l 1
 169 -15 l 1
 19 -15 l 1
 19 25 l 1
EndSplineSet
EndChar

StartChar: bracketleft
Encoding: 169 91 87
Width: 188
Flags: HW
LayerCount: 2
Fore
SplineSet
169 375 m 1
 169 335 l 1
 59 335 l 1
 59 -85 l 1
 169 -85 l 1
 169 -125 l 1
 19 -125 l 1
 19 375 l 1
 169 375 l 1
EndSplineSet
EndChar

StartChar: bracketright
Encoding: 170 93 88
Width: 188
Flags: HW
LayerCount: 2
Fore
SplineSet
19 375 m 1
 169 375 l 1
 169 -125 l 1
 19 -125 l 1
 19 -85 l 1
 129 -85 l 1
 129 335 l 1
 19 335 l 1
 19 375 l 1
EndSplineSet
EndChar

StartChar: parenleft
Encoding: 171 40 89
Width: 188
Flags: HW
LayerCount: 2
Fore
SplineSet
169 375 m 1
 169 335 l 1
 24 250 24 0 169 -85 c 1
 169 -125 l 1
 -31 -50 -31 300 169 375 c 1
EndSplineSet
EndChar

StartChar: parenright
Encoding: 172 41 90
Width: 188
Flags: HW
LayerCount: 2
Fore
SplineSet
19 375 m 1
 219 300 219 -50 19 -125 c 1
 19 -85 l 1
 164 0 164 250 19 335 c 1
 19 375 l 1
EndSplineSet
EndChar

StartChar: braceleft
Encoding: 173 123 91
Width: 189
Flags: HW
LayerCount: 2
Fore
SplineSet
20 144.500976562 m 1
 75.4208984375 144.796875 74.3193359375 194.352539062 74.3193359375 246.756835938 c 0
 74.3193359375 308.254882812 75.708984375 374.264648438 169 374.499023438 c 1
 169 335.499023438 l 1
 113.62890625 335.203125 114.676757812 285.739257812 114.676757812 233.384765625 c 0
 114.676757812 192.009765625 113.803710938 149.418945312 85.9130859375 125 c 1
 115.064453125 99.4775390625 114.674804688 54.5390625 114.674804688 11.0498046875 c 0
 114.674804688 -39.20703125 115.59765625 -85.2138671875 169 -85.4990234375 c 1
 169 -124.499023438 l 1
 72.99609375 -124.2578125 74.3212890625 -54.7783203125 74.3212890625 9.087890625 c 0
 74.3212890625 59.2900390625 73.353515625 105.213867188 20 105.499023438 c 1
 20 144.500976562 l 1
87.4267578125 125 m 1
 116.376953125 150.796875 115.674804688 195.736328125 115.674804688 238.950195312 c 0
 115.674804688 290.001953125 116.665039062 334.5 170 334.5 c 1
 170 375.5 l 1
 72.458984375 375.5 73.3212890625 305.984375 73.3212890625 240.912109375 c 0
 73.3212890625 189.916015625 72.2861328125 145.5 19 145.5 c 1
 19 104.5 l 1
 72.2861328125 104.5 73.3212890625 60.0859375 73.3212890625 9.087890625 c 0
 73.3212890625 -55.1337890625 72.18359375 -125.5 170 -125.5 c 1
 170 -84.5 l 1
 116.665039062 -84.5 115.674804688 -40.00390625 115.674804688 11.0498046875 c 0
 115.674804688 53.7509765625 116.388671875 99.193359375 87.4267578125 125 c 1
169.5 375 m 1
 169.5 335 l 1
 71.2890625 335 150.573242188 180.946289062 86.671875 125 c 1
 150.573242188 69.0537109375 71.2890625 -85 169.5 -85 c 1
 169.5 -125 l 1
 -5.5 -125 139.5 105 19.5 105 c 1
 19.5 145 l 1
 139.5 145 -5.5 375 169.5 375 c 1
EndSplineSet
EndChar

StartChar: braceright
Encoding: 174 125 92
Width: 189
Flags: HW
LayerCount: 2
Fore
SplineSet
20 374.499023438 m 1
 115.747070312 374.258789062 114.678710938 305.583984375 114.678710938 240.923828125 c 0
 114.678710938 190.716796875 115.642578125 144.78515625 169 144.5 c 1
 169 105.499023438 l 1
 113.583984375 105.203125 114.680664062 55.6552734375 114.680664062 3.2548828125 c 0
 114.680664062 -58.2470703125 113.296875 -124.265625 20 -124.500976562 c 1
 20 -85.4970703125 l 1
 75.3564453125 -85.2021484375 74.3232421875 -35.7626953125 74.3232421875 16.5771484375 c 0
 74.3232421875 57.9638671875 75.1884765625 100.57421875 103.087890625 125.000976562 c 1
 73.955078125 150.505859375 74.32421875 194.958007812 74.32421875 238.913085938 c 0
 74.32421875 289.184570312 73.4150390625 335.21484375 20 335.5 c 1
 20 374.499023438 l 1
170 145.499023438 m 1
 114.6328125 145.499023438 115.680664062 193.583007812 115.680664062 246.744140625 c 0
 115.680664062 308.614257812 114.064453125 375.5 19 375.5 c 1
 19 334.500976562 l 1
 74.302734375 334.500976562 73.3232421875 286.540039062 73.3232421875 233.423828125 c 0
 73.3232421875 192.815429688 73.86328125 149.692382812 101.573242188 125.000976562 c 1
 72.6318359375 99.2109375 73.32421875 54.27734375 73.32421875 11.087890625 c 0
 73.32421875 -39.978515625 72.3466796875 -84.4990234375 19 -84.4990234375 c 1
 19 -125.500976562 l 1
 116.536132812 -125.500976562 115.678710938 -55.9873046875 115.678710938 9.0751953125 c 0
 115.678710938 60.076171875 116.709960938 104.5 170 104.5 c 1
 170 145.499023438 l 1
19.4990234375 375 m 1
 194.499023438 375 49.4990234375 145 169.499023438 145 c 1
 169.499023438 105 l 1
 49.4990234375 105 194.499023438 -125 19.4990234375 -125 c 1
 19.4990234375 -85 l 1
 117.709960938 -85 38.42578125 69.0537109375 102.327148438 125 c 1
 38.42578125 180.946289062 117.709960938 335 19.4990234375 335 c 1
 19.4990234375 375 l 1
EndSplineSet
EndChar

StartChar: zero
Encoding: 175 48 93
Width: 188
Flags: HW
LayerCount: 2
Fore
SplineSet
94 300 m 0
 131.5 300 169 275 169 225 c 2
 169 100 l 2
 169 0 19 0 19 100 c 2
 19 225 l 2
 19 275 56.5 300 94 300 c 0
94 262.5 m 0
 76.5 262.5 59 250 59 225 c 2
 59 100 l 2
 59 50 129 50 129 100 c 2
 129 225 l 2
 129 250 111.5 262.5 94 262.5 c 0
94 201.25 m 0
 101.5 201.25 109 197.5 109 190 c 2
 109 135 l 2
 109 120 79 120 79 135 c 2
 79 190 l 2
 79 197.5 86.5 201.25 94 201.25 c 0
EndSplineSet
EndChar

StartChar: one
Encoding: 176 49 94
Width: 188
Flags: HW
LayerCount: 2
Fore
SplineSet
114 300 m 1
 114 65 l 1
 169 65 l 1
 169 25 l 1
 19 25 l 1
 19 65 l 1
 74 65 l 1
 74 300 l 1
 114 300 l 1
74 300 m 1
 74 225 l 1
 19 225 l 1
 19 250 l 1
 49 250 74 270 74 300 c 1
EndSplineSet
EndChar

StartChar: two
Encoding: 177 50 95
Width: 188
Flags: HW
LayerCount: 2
Fore
SplineSet
19 225 m 1
 19 325 169 325 169 225 c 1
 129 225 l 1
 129 275 59 275 59 225 c 1
 19 225 l 1
129 225 m 1
 169 225 l 1
 169 155 64 100 64 65 c 1
 169 65 l 1
 169 25 l 1
 19 25 l 1
 19 65 l 2
 19 125 129 175 129 225 c 1
EndSplineSet
EndChar

StartChar: three
Encoding: 178 51 96
Width: 187
Flags: HW
LayerCount: 2
Fore
SplineSet
19 300 m 1
 94 300 l 2
 171.705078125 300 189.025390625 206.413085938 145.96875 164.681640625 c 1
 189.024414062 121.603515625 171.705078125 25 94 25 c 2
 19 25 l 1
 19 65 l 1
 94 65 l 2
 139 65 139 145 94 145 c 2
 19 145 l 1
 19 185 l 1
 94 185 l 2
 139 185 139 260 94 260 c 2
 19 260 l 1
 19 300 l 1
EndSplineSet
EndChar

StartChar: four
Encoding: 179 52 97
Width: 188
Flags: HW
LayerCount: 2
Fore
SplineSet
94 300 m 1
 139 300 l 1
 64 160 l 1
 129 160 l 1
 129 210 l 1
 169 210 l 1
 169 160 l 1
 169 120 l 1
 169 25 l 1
 129 25 l 1
 129 120 l 1
 19 120 l 1
 19 160 l 1
 94 300 l 1
EndSplineSet
EndChar

StartChar: five
Encoding: 180 53 98
Width: 188
Flags: HW
LayerCount: 2
Fore
SplineSet
19 300 m 1
 154 300 l 1
 154 260 l 1
 59 260 l 1
 59 185 l 1
 94 185 l 2
 194 185 194 25 94 25 c 2
 19 25 l 1
 19 65 l 1
 94 65 l 2
 139 65 139 145 94 145 c 2
 19 145 l 1
 19 185 l 1
 19 300 l 1
EndSplineSet
EndChar

StartChar: six
Encoding: 181 54 99
Width: 188
Flags: HW
LayerCount: 2
Fore
SplineSet
124 300 m 1
 169 300 l 1
 143.563476562 271.383789062 106 230.633789062 82.015625 184.18359375 c 1
 85.837890625 184.716796875 89.830078125 185 94 185 c 0
 194 185 194 25 94 25 c 0
 46.0849609375 25 21.1328125 61.734375 19.134765625 100 c 1
 19 100 l 1
 19 100.884765625 19.0205078125 101.760742188 19.03125 102.640625 c 0
 18.9287109375 106.803710938 19.099609375 110.974609375 19.5390625 115.109375 c 0
 26.779296875 216.411132812 104.931640625 280.931640625 124 300 c 1
94 145 m 0
 49 145 49 65 94 65 c 0
 139 65 139 145 94 145 c 0
EndSplineSet
EndChar

StartChar: seven
Encoding: 182 55 100
Width: 188
Flags: HW
LayerCount: 2
Fore
SplineSet
19 300 m 1
 169 300 l 1
 169 260 l 1
 64 25 l 1
 19 25 l 1
 124 260 l 1
 19 260 l 1
 19 300 l 1
EndSplineSet
EndChar

StartChar: eight
Encoding: 183 56 101
Width: 187
Flags: HW
LayerCount: 2
Fore
SplineSet
93.9970703125 300 m 0
 171.702148438 300 189.022460938 206.413085938 145.965820312 164.681640625 c 1
 189.021484375 121.603515625 171.702148438 25 93.9970703125 25 c 0
 16.2919921875 25 -1.02734375 121.603515625 42.0283203125 164.681640625 c 1
 -1.0283203125 206.413085938 16.2919921875 300 93.9970703125 300 c 0
93.9970703125 260 m 0
 48.9970703125 260 48.9970703125 185 93.9970703125 185 c 0
 138.997070312 185 138.997070312 260 93.9970703125 260 c 0
93.9970703125 145 m 0
 48.9970703125 145 48.9970703125 65 93.9970703125 65 c 0
 138.997070312 65 138.997070312 145 93.9970703125 145 c 0
EndSplineSet
EndChar

StartChar: nine
Encoding: 184 57 102
Width: 188
Flags: HW
LayerCount: 2
Fore
SplineSet
64 25 m 1
 19 25 l 1
 44.4365234375 53.6162109375 82 94.3662109375 105.984375 140.81640625 c 1
 102.162109375 140.283203125 98.169921875 140 94 140 c 0
 -6 140 -6 300 94 300 c 0
 141.915039062 300 166.8671875 263.265625 168.865234375 225 c 1
 169 225 l 1
 169 224.115234375 168.979492188 223.239257812 168.96875 222.359375 c 0
 169.071289062 218.196289062 168.900390625 214.025390625 168.4609375 209.890625 c 0
 161.220703125 108.588867188 83.068359375 44.068359375 64 25 c 1
94 180 m 0
 139 180 139 260 94 260 c 0
 49 260 49 180 94 180 c 0
EndSplineSet
EndChar
